<mxfile host="Electron" agent="Mozilla/5.0 (Windows NT 10.0; Win64; x64) AppleWebKit/537.36 (KHTML, like Gecko) draw.io/26.2.2 Chrome/134.0.6998.178 Electron/35.1.2 Safari/537.36" version="26.2.2">
  <diagram name="Page-1" id="Q1ZrhS3yk-erGd989K-s">
    <mxGraphModel dx="1032" dy="679" grid="1" gridSize="10" guides="1" tooltips="1" connect="1" arrows="1" fold="1" page="1" pageScale="1" pageWidth="570" pageHeight="940" math="0" shadow="0">
      <root>
        <mxCell id="0" />
        <mxCell id="1" parent="0" />
        <mxCell id="xuW71sCoTXRhH30jnL0e-25" style="edgeStyle=orthogonalEdgeStyle;rounded=0;orthogonalLoop=1;jettySize=auto;html=1;endArrow=diamondThin;endFill=0;endSize=19;entryX=1;entryY=0.5;entryDx=0;entryDy=0;" edge="1" parent="1" source="xuW71sCoTXRhH30jnL0e-1" target="xuW71sCoTXRhH30jnL0e-33">
          <mxGeometry relative="1" as="geometry">
            <mxPoint x="780" y="330" as="targetPoint" />
            <Array as="points">
              <mxPoint x="880" y="160" />
              <mxPoint x="880" y="330" />
              <mxPoint x="770" y="330" />
            </Array>
          </mxGeometry>
        </mxCell>
        <mxCell id="xuW71sCoTXRhH30jnL0e-1" value="&lt;p style=&quot;margin:0px;margin-top:4px;text-align:center;&quot;&gt;&lt;i&gt;&amp;lt;&amp;lt;Abstract&amp;gt;&amp;gt;&lt;/i&gt;&lt;br&gt;&lt;b&gt;+ fileSystemElement&lt;/b&gt;&lt;/p&gt;&lt;hr size=&quot;1&quot; style=&quot;border-style:solid;&quot;&gt;&lt;p style=&quot;margin:0px;margin-left:4px;&quot;&gt;- name: String&lt;/p&gt;&lt;hr size=&quot;1&quot; style=&quot;border-style:solid;&quot;&gt;&lt;p style=&quot;margin:0px;margin-left:4px;&quot;&gt;&lt;br&gt;&lt;/p&gt;" style="verticalAlign=top;align=left;overflow=fill;html=1;whiteSpace=wrap;fillColor=none;" vertex="1" parent="1">
          <mxGeometry x="260" y="120" width="190" height="80" as="geometry" />
        </mxCell>
        <mxCell id="xuW71sCoTXRhH30jnL0e-2" value="+ Client" style="swimlane;fontStyle=1;align=center;verticalAlign=top;childLayout=stackLayout;horizontal=1;startSize=27;horizontalStack=0;resizeParent=1;resizeParentMax=0;resizeLast=0;collapsible=1;marginBottom=0;whiteSpace=wrap;html=1;fillColor=none;" vertex="1" parent="1">
          <mxGeometry x="30" y="135" width="160" height="50" as="geometry" />
        </mxCell>
        <mxCell id="xuW71sCoTXRhH30jnL0e-4" value="" style="line;strokeWidth=1;fillColor=none;align=left;verticalAlign=middle;spacingTop=-1;spacingLeft=3;spacingRight=3;rotatable=0;labelPosition=right;points=[];portConstraint=eastwest;strokeColor=inherit;" vertex="1" parent="xuW71sCoTXRhH30jnL0e-2">
          <mxGeometry y="27" width="160" height="23" as="geometry" />
        </mxCell>
        <mxCell id="xuW71sCoTXRhH30jnL0e-26" style="edgeStyle=orthogonalEdgeStyle;rounded=0;orthogonalLoop=1;jettySize=auto;html=1;entryX=0.5;entryY=1;entryDx=0;entryDy=0;endArrow=none;startFill=0;" edge="1" parent="1" source="xuW71sCoTXRhH30jnL0e-6" target="xuW71sCoTXRhH30jnL0e-10">
          <mxGeometry relative="1" as="geometry">
            <Array as="points">
              <mxPoint x="320" y="364" />
              <mxPoint x="140" y="364" />
            </Array>
          </mxGeometry>
        </mxCell>
        <mxCell id="xuW71sCoTXRhH30jnL0e-6" value="+ ShortCut" style="swimlane;fontStyle=1;align=center;verticalAlign=top;childLayout=stackLayout;horizontal=1;startSize=30;horizontalStack=0;resizeParent=1;resizeParentMax=0;resizeLast=0;collapsible=1;marginBottom=0;whiteSpace=wrap;html=1;" vertex="1" parent="1">
          <mxGeometry x="275" y="264" width="160" height="74" as="geometry" />
        </mxCell>
        <mxCell id="xuW71sCoTXRhH30jnL0e-7" value="- name: String" style="text;strokeColor=none;fillColor=none;align=left;verticalAlign=top;spacingLeft=4;spacingRight=4;overflow=hidden;rotatable=0;points=[[0,0.5],[1,0.5]];portConstraint=eastwest;whiteSpace=wrap;html=1;" vertex="1" parent="xuW71sCoTXRhH30jnL0e-6">
          <mxGeometry y="30" width="160" height="20" as="geometry" />
        </mxCell>
        <mxCell id="xuW71sCoTXRhH30jnL0e-8" value="" style="line;strokeWidth=1;fillColor=none;align=left;verticalAlign=middle;spacingTop=-1;spacingLeft=3;spacingRight=3;rotatable=0;labelPosition=right;points=[];portConstraint=eastwest;strokeColor=inherit;" vertex="1" parent="xuW71sCoTXRhH30jnL0e-6">
          <mxGeometry y="50" width="160" height="24" as="geometry" />
        </mxCell>
        <mxCell id="xuW71sCoTXRhH30jnL0e-10" value="+ File" style="swimlane;fontStyle=1;align=center;verticalAlign=top;childLayout=stackLayout;horizontal=1;startSize=30;horizontalStack=0;resizeParent=1;resizeParentMax=0;resizeLast=0;collapsible=1;marginBottom=0;whiteSpace=wrap;html=1;" vertex="1" parent="1">
          <mxGeometry x="60" y="270" width="160" height="74" as="geometry" />
        </mxCell>
        <mxCell id="xuW71sCoTXRhH30jnL0e-11" value="- name: String" style="text;strokeColor=none;fillColor=none;align=left;verticalAlign=top;spacingLeft=4;spacingRight=4;overflow=hidden;rotatable=0;points=[[0,0.5],[1,0.5]];portConstraint=eastwest;whiteSpace=wrap;html=1;" vertex="1" parent="xuW71sCoTXRhH30jnL0e-10">
          <mxGeometry y="30" width="160" height="20" as="geometry" />
        </mxCell>
        <mxCell id="xuW71sCoTXRhH30jnL0e-12" value="" style="line;strokeWidth=1;fillColor=none;align=left;verticalAlign=middle;spacingTop=-1;spacingLeft=3;spacingRight=3;rotatable=0;labelPosition=right;points=[];portConstraint=eastwest;strokeColor=inherit;" vertex="1" parent="xuW71sCoTXRhH30jnL0e-10">
          <mxGeometry y="50" width="160" height="24" as="geometry" />
        </mxCell>
        <mxCell id="xuW71sCoTXRhH30jnL0e-17" value="+ Folder" style="swimlane;fontStyle=1;align=center;verticalAlign=top;childLayout=stackLayout;horizontal=1;startSize=26;horizontalStack=0;resizeParent=1;resizeParentMax=0;resizeLast=0;collapsible=1;marginBottom=0;whiteSpace=wrap;html=1;" vertex="1" parent="1">
          <mxGeometry x="480" y="264" width="250" height="118" as="geometry" />
        </mxCell>
        <mxCell id="xuW71sCoTXRhH30jnL0e-18" value="- name: String&lt;div&gt;- listElement:&amp;nbsp;&lt;span style=&quot;background-color: transparent; color: light-dark(rgb(0, 0, 0), rgb(255, 255, 255));&quot;&gt;List&amp;lt;&lt;/span&gt;&lt;b style=&quot;background-color: transparent; color: light-dark(rgb(0, 0, 0), rgb(255, 255, 255)); text-align: center;&quot;&gt;fileSystemElement&lt;/b&gt;&lt;span style=&quot;background-color: transparent; color: light-dark(rgb(0, 0, 0), rgb(255, 255, 255));&quot;&gt;&amp;gt;&lt;/span&gt;&lt;/div&gt;" style="text;strokeColor=none;fillColor=none;align=left;verticalAlign=top;spacingLeft=4;spacingRight=4;overflow=hidden;rotatable=0;points=[[0,0.5],[1,0.5]];portConstraint=eastwest;whiteSpace=wrap;html=1;" vertex="1" parent="xuW71sCoTXRhH30jnL0e-17">
          <mxGeometry y="26" width="250" height="34" as="geometry" />
        </mxCell>
        <mxCell id="xuW71sCoTXRhH30jnL0e-19" value="" style="line;strokeWidth=1;fillColor=none;align=left;verticalAlign=middle;spacingTop=-1;spacingLeft=3;spacingRight=3;rotatable=0;labelPosition=right;points=[];portConstraint=eastwest;strokeColor=inherit;" vertex="1" parent="xuW71sCoTXRhH30jnL0e-17">
          <mxGeometry y="60" width="250" height="8" as="geometry" />
        </mxCell>
        <mxCell id="xuW71sCoTXRhH30jnL0e-20" value="+ add(element)&lt;div&gt;+ delete(element)&lt;/div&gt;" style="text;strokeColor=none;fillColor=none;align=left;verticalAlign=top;spacingLeft=4;spacingRight=4;overflow=hidden;rotatable=0;points=[[0,0.5],[1,0.5]];portConstraint=eastwest;whiteSpace=wrap;html=1;" vertex="1" parent="xuW71sCoTXRhH30jnL0e-17">
          <mxGeometry y="68" width="250" height="50" as="geometry" />
        </mxCell>
        <mxCell id="xuW71sCoTXRhH30jnL0e-21" value="" style="endArrow=block;endFill=0;endSize=15;html=1;rounded=0;exitX=0.5;exitY=0;exitDx=0;exitDy=0;entryX=0.25;entryY=1;entryDx=0;entryDy=0;" edge="1" parent="1" source="xuW71sCoTXRhH30jnL0e-10" target="xuW71sCoTXRhH30jnL0e-1">
          <mxGeometry width="160" relative="1" as="geometry">
            <mxPoint x="280" y="320" as="sourcePoint" />
            <mxPoint x="440" y="320" as="targetPoint" />
          </mxGeometry>
        </mxCell>
        <mxCell id="xuW71sCoTXRhH30jnL0e-22" value="" style="endArrow=block;endFill=0;endSize=15;html=1;rounded=0;exitX=0.5;exitY=0;exitDx=0;exitDy=0;entryX=0.5;entryY=1;entryDx=0;entryDy=0;" edge="1" parent="1" source="xuW71sCoTXRhH30jnL0e-6" target="xuW71sCoTXRhH30jnL0e-1">
          <mxGeometry width="160" relative="1" as="geometry">
            <mxPoint x="150" y="280" as="sourcePoint" />
            <mxPoint x="318" y="210" as="targetPoint" />
          </mxGeometry>
        </mxCell>
        <mxCell id="xuW71sCoTXRhH30jnL0e-23" value="" style="endArrow=block;endFill=0;endSize=15;html=1;rounded=0;exitX=0.25;exitY=0;exitDx=0;exitDy=0;entryX=0.75;entryY=1;entryDx=0;entryDy=0;" edge="1" parent="1" source="xuW71sCoTXRhH30jnL0e-17" target="xuW71sCoTXRhH30jnL0e-1">
          <mxGeometry width="160" relative="1" as="geometry">
            <mxPoint x="318" y="280" as="sourcePoint" />
            <mxPoint x="150" y="210" as="targetPoint" />
          </mxGeometry>
        </mxCell>
        <mxCell id="xuW71sCoTXRhH30jnL0e-24" value="" style="endArrow=none;endFill=0;endSize=15;html=1;rounded=0;entryX=0.002;entryY=0.663;entryDx=0;entryDy=0;startFill=0;exitX=1;exitY=0.75;exitDx=0;exitDy=0;entryPerimeter=0;" edge="1" parent="1" source="xuW71sCoTXRhH30jnL0e-2" target="xuW71sCoTXRhH30jnL0e-1">
          <mxGeometry width="160" relative="1" as="geometry">
            <mxPoint x="220" y="190" as="sourcePoint" />
            <mxPoint x="318" y="210" as="targetPoint" />
          </mxGeometry>
        </mxCell>
        <mxCell id="xuW71sCoTXRhH30jnL0e-27" style="edgeStyle=orthogonalEdgeStyle;rounded=0;orthogonalLoop=1;jettySize=auto;html=1;entryX=0.372;entryY=1.024;entryDx=0;entryDy=0;entryPerimeter=0;endArrow=none;startFill=0;" edge="1" parent="1" source="xuW71sCoTXRhH30jnL0e-6" target="xuW71sCoTXRhH30jnL0e-20">
          <mxGeometry relative="1" as="geometry">
            <Array as="points">
              <mxPoint x="390" y="400" />
              <mxPoint x="573" y="400" />
            </Array>
          </mxGeometry>
        </mxCell>
        <mxCell id="xuW71sCoTXRhH30jnL0e-28" value="{XOR}" style="text;html=1;align=center;verticalAlign=middle;whiteSpace=wrap;rounded=0;" vertex="1" parent="1">
          <mxGeometry x="325" y="480" width="60" height="30" as="geometry" />
        </mxCell>
        <mxCell id="xuW71sCoTXRhH30jnL0e-29" value="&amp;lt; &lt;font style=&quot;font-size: 14px;&quot;&gt;Concern&lt;/font&gt;" style="text;html=1;align=center;verticalAlign=middle;whiteSpace=wrap;rounded=0;" vertex="1" parent="1">
          <mxGeometry x="170" y="425" width="90" height="30" as="geometry" />
        </mxCell>
        <mxCell id="xuW71sCoTXRhH30jnL0e-30" value="&lt;font style=&quot;font-size: 14px;&quot;&gt;Concern &amp;gt;&lt;/font&gt;" style="text;html=1;align=center;verticalAlign=middle;whiteSpace=wrap;rounded=0;" vertex="1" parent="1">
          <mxGeometry x="460" y="425" width="90" height="30" as="geometry" />
        </mxCell>
        <mxCell id="xuW71sCoTXRhH30jnL0e-31" value="" style="endArrow=none;html=1;rounded=0;bendable=1;endFill=0;startFill=0;dashed=1;entryX=0.25;entryY=0.64;entryDx=0;entryDy=0;entryPerimeter=0;snapToPoint=0;" edge="1" parent="1" target="xuW71sCoTXRhH30jnL0e-28">
          <mxGeometry width="50" height="50" relative="1" as="geometry">
            <mxPoint x="270" y="365" as="sourcePoint" />
            <mxPoint x="360" y="430" as="targetPoint" />
            <Array as="points">
              <mxPoint x="270" y="500" />
            </Array>
          </mxGeometry>
        </mxCell>
        <mxCell id="xuW71sCoTXRhH30jnL0e-32" value="" style="endArrow=none;html=1;rounded=0;bendable=1;endFill=0;startFill=0;dashed=1;entryX=0.25;entryY=0.64;entryDx=0;entryDy=0;entryPerimeter=0;snapToPoint=0;" edge="1" parent="1">
          <mxGeometry width="50" height="50" relative="1" as="geometry">
            <mxPoint x="440" y="400" as="sourcePoint" />
            <mxPoint x="370" y="499" as="targetPoint" />
            <Array as="points">
              <mxPoint x="440" y="500" />
            </Array>
          </mxGeometry>
        </mxCell>
        <mxCell id="xuW71sCoTXRhH30jnL0e-33" value="name" style="rounded=0;whiteSpace=wrap;html=1;fillColor=none;" vertex="1" parent="1">
          <mxGeometry x="730" y="320" width="40" height="18" as="geometry" />
        </mxCell>
      </root>
    </mxGraphModel>
  </diagram>
</mxfile>
